<?xml version="1.0" encoding="UTF-8" standalone="no"?>
<svg
   xmlns:dc="http://purl.org/dc/elements/1.1/"
   xmlns:cc="http://creativecommons.org/ns#"
   xmlns:rdf="http://www.w3.org/1999/02/22-rdf-syntax-ns#"
   xmlns:svg="http://www.w3.org/2000/svg"
   xmlns="http://www.w3.org/2000/svg"
   width="214.45915mm"
   height="78.315643mm"
   viewBox="0 0 214.45915 78.315643"
   version="1.1"
   id="svg94">
  <defs
     id="defs88" />
  <metadata
     id="metadata91">
    <rdf:RDF>
      <cc:Work
         rdf:about="">
        <dc:format>image/svg+xml</dc:format>
        <dc:type
           rdf:resource="http://purl.org/dc/dcmitype/StillImage" />
        <dc:title></dc:title>
      </cc:Work>
    </rdf:RDF>
  </metadata>
  <g
     id="layer1"
     transform="translate(1.8132387,-220.79281)">
    <path
       style="fill:#000000;stroke-width:0.0846667"
       d="m 62.780314,293.9733 c -0.51354,-0.1562 -0.91057,-0.44505 -1.18802,-0.86431 -1.24457,-1.88068 -3.15478,-13.18325 -3.56369,-21.08607 l -0.0588,-1.13593 -0.17709,0.21418 c -0.0974,0.1178 -0.42403,0.51467 -0.72584,0.88194 -3.10574,3.7793 -5.72216,6.1606 -9.48426,8.63193 -2.82677,1.85692 -5.31232,3.09286 -8.97467,4.46265 -3.198,1.19612 -5.81801,1.845 -9.017,2.23317 -1.00923,0.12246 -1.89583,0.15427 -4.318,0.15491 -3.26138,8.5e-4 -3.9952,-0.0593 -6.15759,-0.50438 -3.63375,-0.74799 -7.88952,-2.65789 -10.8158664,-4.85394 -2.00585,-1.50525 -3.64551,-3.60154 -4.41105,-5.63947 -0.56659,-1.50828 -0.70028,-2.34043 -0.70167,-4.36746 -10e-4,-2.01996 0.1165,-2.72582 0.74857,-4.48212 0.70514,-1.95934 1.76242,-3.58908 3.3857,-5.21887 2.4114,-2.42107 4.8846864,-3.44402 8.3422464,-3.45035 3.25839,-0.006 5.63607,0.9074 7.20691,2.76844 1.43654,1.70193 1.65131,3.67175 0.62937,5.77245 -0.65944,1.35558 -1.87494,2.39148 -3.39128,2.89024 -0.56482,0.18578 -0.87716,0.22916 -1.88022,0.26115 -1.78041,0.0568 -3.12062,-0.22536 -3.70978,-0.781 -0.67837,-0.63979 -0.1453,-1.19947 1.23238,-1.2939 0.67082,-0.046 1.42168,0.10732 1.82724,0.37305 0.18126,0.11877 0.22143,0.11474 0.48589,-0.0487 0.58513,-0.36164 1.28767,-1.28999 1.54799,-2.04556 0.39444,-1.14487 0.31884,-2.41839 -0.2025,-3.41149 -0.78159,-1.48882 -2.55541,-2.63382 -3.84386,-2.48123 -0.9255,0.10962 -2.28505,0.93004 -3.42251,2.06532 -1.779906,1.7765 -3.0457164,4.10029 -3.5638264,6.54257 -0.21325,1.00518 -0.21587,3.76979 -0.005,4.89494 0.36632,1.95132 1.28966,3.75264 2.7316964,5.32921 2.19809,2.40316 7.09913,4.94696 10.70808,5.55784 2.95819,0.50074 6.79171,0.2935 10.03368,-0.5424 3.28925,-0.8481 7.75254,-2.70058 10.47143,-4.34616 2.55165,-1.54435 4.92218,-3.3302 6.70264,-5.04945 2.23154,-2.15484 5.58639,-6.26267 7.7909,-9.53953 l 0.74892,-1.11323 0.0764,-3.28944 c 0.0793,-3.4129 0.26967,-6.33495 0.62504,-9.59217 0.73506,-6.73743 1.74508,-11.90225 3.42828,-17.53094 1.79091,-5.98887 2.79091,-8.02056 4.14264,-8.4166 0.57656,-0.16892 1.62195,-0.17367 2.1735,-0.01 0.53365,0.15848 0.79563,0.39835 0.79563,0.72848 0,0.28107 -0.25228,0.83224 -0.45974,1.00441 -0.49764,0.41301 -2.81384,10.02312 -3.68449,15.28726 -0.76476,4.62394 -1.27177,9.69797 -1.53974,15.40933 -0.12849,2.73856 -0.12741,10.51834 0.002,13.50433 0.18122,4.18562 0.58117,9.84427 0.69099,9.77639 0.0335,-0.0207 0.0875,-0.21908 0.12009,-0.44085 0.26581,-1.81087 1.24813,-6.3232 1.77981,-8.17558 1.27863,-4.45478 3.52687,-8.01854 5.74296,-9.10333 1.39965,-0.68515 3.43981,-0.68774 4.71891,-0.006 1.11054,0.59191 1.57498,1.56258 1.85901,3.88535 0.0575,0.46988 0.12929,3.21587 0.17275,6.604 0.0409,3.18982 0.0932,5.91397 0.11621,6.05367 0.023,0.1397 0.0847,0.69215 0.1372,1.22766 0.18991,1.93849 0.77422,4.45446 1.05556,4.54509 0.0964,0.0311 0.82615,-1.10437 1.20704,-1.87809 0.46802,-0.95069 1.10288,-2.62085 1.65747,-4.36033 0.8303,-2.60429 0.8839,-2.82004 1.03073,-4.14867 0.45013,-4.07313 2.09668,-8.26078 4.0569,-10.31783 1.66541,-1.74768 4.06611,-2.57469 6.69908,-2.30776 2.56849,0.2604 4.47793,1.45233 5.41932,3.38292 0.686966,1.40881 0.902236,3.19071 0.542356,4.48938 -0.760076,2.74283 -3.385276,4.78335 -6.940286,5.39452 -0.63299,0.10883 -1.16504,0.12933 -2.49766,0.0962 -0.93134,-0.0231 -1.77498,-0.0685 -1.87476,-0.10092 -0.17763,-0.0576 -0.18275,-0.0344 -0.24466,1.11279 -0.10534,1.95181 0.16037,4.70178 0.63065,6.52667 0.54178,2.10239 1.49888,3.92055 2.5876,4.9156 0.76368,0.69795 1.22974,0.68519 2.35038,-0.0643 1.73224,-1.15859 3.60581,-3.66545 6.077596,-8.13192 3.30502,-5.9721 5.85773,-11.22058 6.85638,-14.097 0.22634,-0.65193 0.43495,-1.24599 0.46358,-1.32011 0.0286,-0.0741 0.199,-0.21737 0.37859,-0.3183 0.31069,-0.17462 0.32931,-0.20913 0.38391,-0.71188 0.41341,-3.80659 1.49089,-11.62404 2.12084,-15.38738 1.21904,-7.28273 2.78898,-13.70546 4.28396,-17.52599 0.63063,-1.61163 0.78831,-1.86019 1.36194,-2.14703 0.92552,-0.4628 2.45072,-0.38159 3.17782,0.1692 0.22817,0.17284 0.27517,0.26511 0.27517,0.54022 0,0.18248 -0.32258,1.62658 -0.71683,3.20911 -1.05831,4.24813 -1.82681,7.97722 -2.62727,12.74883 -1.07641,6.41655 -2.50375,18.30698 -3.00838,25.06133 -0.14701,1.96775 -0.19971,7.83195 -0.0894,9.94833 0.2805,5.38126 0.83986,8.08021 2.06815,9.97894 l 0.39377,0.60871 0.21514,-0.14097 c 0.58659,-0.38435 2.29123,-2.72942 3.3164,-4.56234 2.15578,-3.85444 6.28749,-13.58863 9.23615,-21.76011 1.14538,-3.17416 1.1643,-3.24672 1.45592,-5.58723 0.81567,-6.54614 1.99824,-12.79486 3.22868,-17.06033 0.68009,-2.35756 2.12834,-6.47845 2.63336,-7.493 0.36736,-0.73798 0.60436,-0.9524 1.27926,-1.1574 1.36293,-0.41398 3.18904,0.0344 3.18904,0.78302 0,0.1271 -0.16839,0.79674 -0.37421,1.48807 -0.76658,2.57501 -1.49808,5.15633 -1.77947,6.2795 -1.56519,6.24752 -3.14056,17.37855 -4.23208,29.90248 -0.33802,3.87838 -0.41382,5.6526 -0.36175,8.46666 0.0497,2.68351 0.13413,3.58717 0.52889,5.65835 0.36743,1.92771 1.0958,4.15311 1.55466,4.74994 l 0.15833,0.20595 0.28432,-0.40259 c 1.46329,-2.07204 3.67817,-7.11484 7.49166,-17.05685 0.96539,-2.51686 1.16285,-2.87593 1.73687,-3.15848 0.99968,-0.49207 1.14249,-0.53609 1.83839,-0.56667 l 0.70728,-0.0311 -0.05,-0.24988 c -0.30472,-1.52362 -0.22827,-2.95157 0.23045,-4.30403 0.47996,-1.41508 1.16211,-2.21719 2.38431,-2.80357 1.92972,-0.92583 4.77145,-0.71476 6.44384,0.47863 1.58292,1.12954 2.54775,3.4396 3.09283,7.40494 0.1731,1.25933 0.14972,4.80741 -0.0396,6.01134 -0.13199,0.83927 -0.35636,1.90629 -0.52585,2.50071 -0.0397,0.13933 0.0939,0.28791 0.69682,0.7749 1.60881,1.29941 3.75626,2.62149 5.69897,3.50858 4.401,2.00961 10.6279,2.93846 16.34067,2.4375 6.18565,-0.54243 11.41172,-2.67769 15.82313,-6.46501 2.26394,-1.94365 4.05356,-4.76322 4.86658,-7.66735 0.3892,-1.39027 0.50672,-3.43628 0.27233,-4.74133 -0.34338,-1.91185 -1.39725,-3.89591 -2.76187,-5.19967 -0.53318,-0.5094 -0.83586,-0.71681 -1.53689,-1.05311 -1.08703,-0.52149 -1.86099,-0.73182 -2.44034,-0.66321 -1.51822,0.17981 -3.302,2.41788 -3.30047,4.14104 8.5e-4,0.60686 0.0797,0.93922 0.44542,1.87058 0.24231,0.61704 0.28761,0.67598 0.66751,0.86849 0.56484,0.28623 0.71854,0.53797 0.59012,0.96658 -0.22946,0.76586 -1.12229,1.14586 -2.67719,1.13943 -1.32209,-0.005 -1.82119,-0.18079 -2.49767,-0.87738 -1.05176,-1.08305 -1.95178,-3.22304 -1.82539,-4.34024 0.2192,-1.93745 1.80721,-4.03673 3.81506,-5.04334 3.129,-1.56869 7.3536,-1.3875 10.90103,0.46753 2.11735,1.10722 3.75856,3.13989 4.63954,5.74615 0.77484,2.29229 0.72638,4.84841 -0.14169,7.47421 -0.57346,1.73466 -1.68848,3.8041 -2.80889,5.21327 -2.2448,2.82333 -6.10447,5.60841 -10.18338,7.34817 -5.10452,2.1772 -11.51894,3.16618 -17.94294,2.76645 -6.98052,-0.43437 -12.57389,-2.06019 -17.16582,-4.98957 l -0.64917,-0.41412 -0.49296,0.93625 c -0.96384,1.83054 -2.07541,3.15552 -3.20225,3.81704 -0.9477,0.55634 -1.54555,0.69628 -2.95847,0.69247 -1.10883,-0.003 -1.28778,-0.0249 -1.84866,-0.22684 -0.93228,-0.33558 -1.49512,-0.70604 -2.35164,-1.54785 -1.51345,-1.48748 -2.40841,-3.25541 -2.63589,-5.207 l -0.0641,-0.55033 -0.79501,2.07433 c -2.81875,7.35461 -4.35095,10.08796 -6.14766,10.96709 -1.23392,0.60376 -2.92995,0.60484 -4.24519,0.003 -0.54898,-0.25133 -1.43705,-1.0741 -1.91311,-1.77244 -1.31655,-1.93128 -2.46712,-5.85484 -2.87089,-9.79002 -0.064,-0.62325 -0.10986,-2.21266 -0.1117,-3.86619 -0.002,-1.54433 -0.009,-2.80163 -0.0162,-2.794 -0.007,0.008 -0.41367,0.98541 -0.90321,2.17286 -3.39725,8.24055 -5.12406,11.64269 -7.13695,14.06116 -1.49169,1.79225 -2.94505,2.5335 -4.96736,2.5335 -1.61944,0 -2.73742,-0.46402 -3.87034,-1.60638 -2.39134,-2.41129 -3.50917,-6.90955 -3.82402,-15.3883 l -0.10131,-2.72835 -1.0503,2.05102 c -2.31562,4.52194 -4.10766,7.75939 -5.30636,9.58635 -2.265606,3.45306 -4.082296,4.94988 -6.650486,5.47954 -0.6749,0.13919 -1.03808,0.15976 -2.24452,0.12713 -1.93096,-0.0522 -2.83557,-0.29817 -4.10858,-1.11701 -1.34881,-0.8676 -2.71978,-2.71973 -3.59662,-4.85888 l -0.18605,-0.4539 -0.3226,0.5809 c -1.05651,1.9024 -1.97454,2.75766 -3.35424,3.12488 -0.60548,0.16116 -2.18414,0.15943 -2.80804,-0.003 -2.59441,-0.67576 -3.83951,-3.21042 -4.51305,-9.18725 -0.10766,-0.95536 -0.15022,-2.49847 -0.19191,-6.95684 -0.0295,-3.15104 -0.0793,-5.75487 -0.11072,-5.78627 -0.12052,-0.12038 -1.40361,1.78587 -1.99759,2.96775 -1.82075,3.62288 -3.27614,10.03204 -4.46815,19.6766 -0.41621,3.3676 -0.56831,3.92471 -1.16941,4.28326 -0.62632,0.37359 -2.0573,0.4912 -2.89104,0.23761 z m 89.867806,-8.96294 c 0.76206,-0.93712 1.47576,-2.27354 2.16289,-4.05002 l 0.32277,-0.83451 -0.5414,-0.47726 c -2.4111,-2.12541 -3.8251,-3.69044 -4.93598,-5.46319 -0.27621,-0.44078 -0.48849,-0.70333 -0.51342,-0.635 -0.11504,0.31514 -0.39732,3.07269 -0.44095,4.30747 -0.10184,2.88251 0.33274,4.7657 1.50376,6.51641 0.26706,0.39924 0.69824,0.92705 0.95818,1.17289 l 0.47265,0.44701 0.29845,-0.23699 c 0.16416,-0.13034 0.48503,-0.4664 0.71305,-0.74681 z m 3.38408,-10.92069 c 0.0208,-3.96827 -0.92551,-7.82566 -2.28151,-9.29988 -0.40079,-0.43572 -0.40151,-0.43606 -0.58175,-0.2731 -0.25922,0.23438 -0.65786,1.09516 -0.82629,1.78417 -0.21259,0.86968 -0.19499,2.49309 0.0372,3.43474 0.44809,1.81686 1.6006,4.01389 3.01449,5.74647 0.48277,0.5916 0.51754,0.61733 0.5717,0.42334 0.0317,-0.11361 0.0615,-0.93069 0.0661,-1.81574 z m -63.298496,0.60213 c 1.66414,-0.55863 3.08096,-2.00844 3.4873,-3.56847 0.52214,-2.00463 -0.5508,-4.80771 -2.15316,-5.62517 -0.3532,-0.18019 -0.38341,-0.18252 -0.65965,-0.0508 -1.28904,0.61469 -2.7526,3.17882 -3.70694,6.49444 -0.34001,1.18128 -0.6619,2.69698 -0.58837,2.7705 0.11954,0.11955 1.41581,0.25795 2.15791,0.23039 0.58054,-0.0216 0.98776,-0.0914 1.46291,-0.2509 z"
       id="path110" />
  </g>
</svg>
