<?xml version="1.0" encoding="UTF-8" standalone="no"?>
<svg
   xmlns:dc="http://purl.org/dc/elements/1.1/"
   xmlns:cc="http://creativecommons.org/ns#"
   xmlns:rdf="http://www.w3.org/1999/02/22-rdf-syntax-ns#"
   xmlns:svg="http://www.w3.org/2000/svg"
   xmlns="http://www.w3.org/2000/svg"
   width="211.13278mm"
   height="66.641464mm"
   viewBox="0 0 211.13278 66.641464"
   version="1.1"
   id="svg142">
  <defs
     id="defs136" />
  <metadata
     id="metadata139">
    <rdf:RDF>
      <cc:Work
         rdf:about="">
        <dc:format>image/svg+xml</dc:format>
        <dc:type
           rdf:resource="http://purl.org/dc/dcmitype/StillImage" />
        <dc:title></dc:title>
      </cc:Work>
    </rdf:RDF>
  </metadata>
  <g
     id="layer1"
     transform="translate(-0.88850877,-232.85126)">
    <path
       style="fill:#000000;stroke-width:0.0904456"
       d="m 105.79733,294.3887 c -1.83502,-0.52989 -2.97527,-2.08737 -3.73171,-5.09721 -0.6112,-2.43192 -0.73348,-3.62898 -0.73461,-7.19188 l -9.9e-4,-3.14411 -0.31657,0.38516 c -1.394691,1.69696 -3.989643,4.35968 -4.973559,5.10345 -1.426281,1.07816 -2.530964,1.47426 -4.118178,1.4766 -2.101888,0.003 -3.452878,-0.82441 -4.420899,-2.70792 -0.463516,-0.90188 -0.803669,-1.93511 -0.961622,-2.921 l -0.112305,-0.70096 -1.050319,1.74277 c -1.155917,1.91799 -1.661094,2.64736 -2.770915,4.00055 -1.492364,1.81963 -2.598456,2.6872 -3.73321,2.92816 -1.525341,0.32389 -3.211069,-0.18038 -4.074924,-1.21897 -1.487043,-1.78785 -1.739034,-5.25917 -0.691086,-9.52024 0.166851,-0.67842 0.590083,-2.11483 0.940513,-3.19198 0.676985,-2.08093 0.884419,-3.02011 0.78458,-3.55231 l -0.06153,-0.32823 -0.451979,0.25136 c -2.7976,1.55586 -6.117459,5.79527 -8.028151,10.25184 -0.427131,0.99623 -1.552816,4.27023 -2.236884,6.50584 -0.175055,0.57207 -0.360515,1.12599 -0.412143,1.23093 -0.154096,0.3132 -0.687316,0.51118 -1.502661,0.55794 -1.222522,0.0701 -1.924676,-0.22037 -2.094849,-0.86665 -0.08877,-0.33717 -0.40818,-3.41804 -0.700401,-6.75595 -0.110458,-1.26163 -0.157493,-2.6709 -0.155474,-4.65796 0.0032,-3.00331 0.08535,-4.10869 0.534811,-7.18485 0.123117,-0.8426 0.223842,-1.57521 0.223842,-1.62802 1.1e-5,-0.067 -2.413861,-0.0969 -7.981821,-0.099 -6.051708,-0.002 -8.889474,-0.0411 -11.735317,-0.16072 -2.064424,-0.0868 -5.64607,-0.18241 -7.959216,-0.21264 -9.624199,-0.12578 -14.495411,0.50942 -18.405673,2.40002 -1.224189,0.5919 -2.201439,1.29362 -3.243426,2.32901 -0.790637,0.78562 -1.22953,1.38835 -1.7184594,2.35998 -1.0931989,2.17245 -1.1003135,3.82949 -0.020831,4.84548 0.2532194,0.23832 0.5507924,0.45612 0.6612604,0.48399 0.479049,0.12086 2.301161,-1.04681 2.796383,-1.79201 0.440698,-0.66314 1.32313,-0.97982 2.727896,-0.97891 1.004822,9.1e-4 1.404392,0.11217 1.653061,0.46139 0.417079,0.58574 0.07595,1.19121 -1.233525,2.18928 -0.951602,0.72532 -2.293843,1.40655 -3.431311,1.74152 -1.077014,0.31717 -2.770648,0.40059 -3.6991857,0.18223 -1.813502,-0.4265 -3.0022029,-1.60168 -3.3682299,-3.32995 -0.253967,-1.19908 -0.029377,-2.35348 0.7787473,-4.00357 1.738628,-3.54988 5.5666243,-6.03382 11.1325653,-7.22377 2.679376,-0.57284 4.726345,-0.80032 8.722944,-0.96942 2.931185,-0.12403 9.196822,-0.0621 14.199963,0.14047 5.88474,0.23821 11.877587,0.34125 16.14454,0.27761 2.968724,-0.0442 4.144125,-0.091 4.218828,-0.16796 0.05694,-0.0587 0.171231,-0.45254 0.253978,-0.87537 0.352802,-1.80307 1.163511,-4.78607 1.829408,-6.73124 1.379513,-4.02975 3.406303,-8.10023 5.5653,-11.17699 1.816205,-2.58826 4.182112,-5.22319 5.863353,-6.53008 2.045965,-1.59038 4.42028,-2.74346 6.700246,-3.25394 0.824544,-0.18462 1.17569,-0.21009 2.883456,-0.20919 1.809752,9.6e-4 2.011129,0.0178 2.904393,0.24397 1.962503,0.49675 3.558305,1.36316 4.794714,2.60316 0.680553,0.68254 0.845193,0.91413 1.291136,1.81611 0.688095,1.3918 0.96018,2.47212 1.02404,4.06595 0.07585,1.89414 -0.217347,3.92646 -0.808039,5.60029 -1.684072,4.77205 -6.502319,9.13831 -13.185847,11.9489 -3.357409,1.41188 -9.081098,2.90487 -12.639777,3.297 -0.310905,0.0343 -0.565288,0.0729 -0.565288,0.0858 0,0.0129 -0.16261,0.74649 -0.361359,1.63018 -0.838719,3.72909 -1.440927,7.31136 -1.5892,9.45341 l -0.0595,0.85923 0.6791,-1.13057 c 1.967598,-3.2757 4.683188,-6.58718 6.576799,-8.02 2.111855,-1.59793 4.264314,-1.98743 6.118548,-1.10717 0.642908,0.3052 1.047777,0.72695 1.377686,1.43517 0.20737,0.44512 0.233414,0.61356 0.231342,1.49647 -0.0021,1.13242 -0.122155,1.78739 -0.767285,4.20572 -0.5556,2.08272 -1.033302,4.20893 -1.233087,5.48829 -0.214281,1.37228 -0.210265,3.25082 0.0085,3.98834 0.09262,0.31227 0.206237,0.59111 0.25245,0.61967 0.1033,0.0639 1.550049,-1.39513 2.298575,-2.31798 1.343748,-1.65669 3.362782,-4.91185 6.030728,-9.72289 0.341745,-0.61626 0.591012,-0.95698 0.782272,-1.06925 0.199967,-0.11739 0.400585,-0.40355 0.697486,-0.99491 1.106904,-2.20464 2.552489,-3.61545 4.361461,-4.25649 0.710774,-0.25187 0.879035,-0.27614 1.910008,-0.27562 0.985786,9e-4 1.213175,0.0303 1.775558,0.23308 0.852884,0.30745 1.241334,0.61885 1.546086,1.23943 0.22037,0.44875 0.25011,0.61024 0.24401,1.32504 -0.0075,0.93721 -0.142067,1.31138 -0.773053,2.15746 -0.925056,1.24038 -2.888477,2.25879 -5.047698,2.6182 -0.774175,0.12887 -0.666805,-0.0474 -1.05738,1.73642 -0.341383,1.55917 -0.401376,3.78021 -0.136684,5.06038 0.199956,0.96713 0.58956,1.87069 0.954412,2.21345 l 0.226406,0.21269 0.487765,-0.23864 c 1.428011,-0.69867 3.927109,-3.14285 6.532145,-6.38865 0.958466,-1.19421 2.344466,-3.07948 2.535376,-3.44867 0.0714,-0.13804 0.21155,-0.81255 0.31147,-1.49892 0.8531,-5.85955 2.28294,-10.73456 4.85581,-16.55575 2.37791,-5.38007 4.40362,-8.62126 7.08203,-11.33151 1.67196,-1.69184 3.11018,-2.64253 4.67735,-3.09183 0.54435,-0.15607 0.94022,-0.20203 1.74428,-0.20254 1.22883,-8.2e-4 1.78726,0.14151 2.58907,0.65976 2.54238,1.64322 2.56698,7.41877 0.0594,13.94341 -1.62008,4.21537 -3.59491,7.30745 -6.52803,10.22121 -2.52224,2.50559 -4.77942,4.08602 -7.95114,5.56719 -0.76134,0.35555 -1.41836,0.68287 -1.46005,0.72741 -0.10458,0.11174 -0.7635,3.6834 -1.08606,5.88731 -0.75679,5.17074 -0.76885,9.1393 -0.0363,11.96105 0.23786,0.91632 0.72179,1.93686 1.07637,2.26998 l 0.2185,0.20528 0.48461,-0.32176 c 1.38335,-0.91851 3.66929,-3.58345 5.37278,-6.26362 1.73509,-2.72983 4.89632,-8.50351 7.25488,-13.25027 1.31493,-2.64639 1.32819,-2.67921 1.6259,-4.02484 0.6015,-2.7187 1.67603,-6.39931 2.68108,-9.18348 1.80219,-4.99238 3.65047,-8.52606 5.98129,-11.43544 2.03719,-2.54287 4.07276,-3.9763 6.28811,-4.42803 1.91148,-0.38976 3.80049,0.0571 4.49234,1.06268 0.60632,0.88126 0.87949,2.32529 0.79744,4.21554 -0.0871,2.00428 -0.63057,3.84477 -1.92001,6.50115 -1.66537,3.43083 -3.26511,5.70303 -5.77688,8.20523 -2.1883,2.17995 -4.1568,3.61726 -6.5162,4.75779 l -1.10067,0.53208 -0.42742,1.92127 c -1.30736,5.87653 -1.8301,9.53287 -1.92983,13.4983 -0.0725,2.88658 0.11711,4.51132 0.64933,5.56162 0.33911,0.66921 0.4045,0.68941 0.91513,0.28285 1.90029,-1.51304 6.5784,-8.86907 10.84686,-17.05599 0.43984,-0.84361 0.93378,-1.68224 1.09766,-1.86363 0.16387,-0.18138 0.46716,-0.66787 0.67397,-1.08107 0.5112,-1.02135 1.24454,-1.75103 2.26015,-2.24887 1.08275,-0.53075 1.73723,-0.6805 2.97409,-0.6805 1.23021,0 1.89573,0.15081 2.93948,0.66605 1.2952,0.63936 2.29752,1.67463 3.07179,3.17276 0.76425,1.47874 1.04141,3.1868 0.868,5.34932 -0.0525,0.65442 -0.0785,1.20676 -0.0579,1.22742 0.0206,0.0206 0.9465,-0.226 2.05742,-0.54812 15.08218,-4.37332 24.25095,-6.76322 30.55544,-7.96448 4.65708,-0.88737 6.63375,-1.12641 9.94901,-1.20314 3.14045,-0.0727 4.97388,0.10351 7.31124,0.7028 1.32773,0.3404 3.07426,1.06157 3.92753,1.62172 2.56762,1.68562 3.21001,4.63844 1.37413,6.31634 -0.78401,0.71653 -2.50817,1.41635 -3.74922,1.52179 -1.03721,0.0881 -2.08026,-0.25859 -2.08026,-0.69148 0,-0.0898 0.26226,-0.39353 0.5828,-0.67494 0.70301,-0.61721 1.00094,-1.17791 1.14466,-2.15417 0.14235,-0.96711 0.0445,-1.7276 -0.31941,-2.48256 -0.35441,-0.73519 -0.45125,-0.82889 -1.2728,-1.23146 -1.74138,-0.85331 -3.73041,-1.23967 -6.38203,-1.23967 -3.57779,0 -8.52522,0.71581 -15.09838,2.18448 -3.0095,0.67242 -11.85876,2.94329 -15.10441,3.87604 -2.12589,0.61096 -4.79434,1.33185 -6.69897,1.80976 -1.01359,0.25432 -2.29176,0.58583 -2.84041,0.73668 -0.54864,0.15086 -1.60305,0.40558 -2.34313,0.56606 l -1.34559,0.29179 -0.30738,0.94305 c -0.63117,1.93653 -1.66633,3.66953 -2.79564,4.68033 -1.1364,1.01714 -2.77922,1.49748 -4.40804,1.28885 -1.96184,-0.25129 -3.19915,-1.022 -4.32911,-2.69652 -0.84349,-1.24999 -1.44699,-2.84142 -1.57882,-4.16332 -0.10682,-1.07133 -0.0958,-1.07795 -1.11543,0.67482 -2.26832,3.89956 -4.37974,7.23533 -5.66058,8.943 -2.02727,2.70283 -3.83131,3.62249 -5.95234,3.03435 -2.29913,-0.63753 -3.36663,-2.99331 -3.77521,-8.33119 -0.1017,-1.32904 -0.0686,-4.51416 0.0635,-6.10508 l 0.0526,-0.63312 -1.01804,1.85414 c -2.56126,4.66472 -4.77132,8.41064 -5.8528,9.92016 -2.22622,3.10732 -3.56877,4.4342 -5.0723,5.01315 -0.63978,0.24636 -2.27139,0.32234 -2.91717,0.13587 z m 38.58763,-9.45578 c 0.58827,-0.44414 1.27726,-1.35522 1.74448,-2.30679 0.39318,-0.80076 0.789,-1.84054 0.72502,-1.90453 -0.0224,-0.0224 -0.44036,-0.0853 -0.92879,-0.13974 -1.20971,-0.13489 -2.26009,-0.45057 -3.44011,-1.03386 -0.54563,-0.26971 -1.01161,-0.47086 -1.03546,-0.447 -0.0839,0.0839 0.17089,2.17098 0.35074,2.87348 0.26046,1.01736 0.89886,2.31127 1.40994,2.85765 0.235,0.25123 0.48924,0.45679 0.56498,0.45679 0.0757,0 0.34986,-0.1602 0.6092,-0.356 z m 2.96135,-6.42741 c 0.0385,-0.2736 0.0715,-1.16901 0.0734,-1.9898 0.004,-1.81326 -0.17651,-2.79966 -0.71696,-3.91425 -0.57809,-1.19224 -1.62855,-2.44152 -2.38074,-2.83137 -0.22308,-0.11561 -0.27354,-0.10319 -0.67834,0.16738 -0.55553,0.37125 -1.10619,1.18631 -1.39282,2.06156 -0.18786,0.5736 -0.22031,0.84673 -0.22031,1.85346 v 1.18073 l 0.34085,0.68944 c 0.59976,1.21311 2.32534,2.61918 3.81964,3.11241 0.34822,0.11494 0.73487,0.19972 0.85924,0.18843 0.20152,-0.0183 0.23371,-0.0746 0.29606,-0.51799 z m -54.174396,-4.90519 c 0.714257,-0.37981 1.419861,-1.0874 1.743008,-1.74788 0.334417,-0.68352 0.355707,-1.50156 0.05619,-2.15963 l -0.203204,-0.44649 -0.45826,0.44649 c -0.791694,0.77134 -1.576178,2.08985 -2.095275,3.52164 -0.126257,0.34821 -0.257728,0.70403 -0.292168,0.79071 -0.05843,0.14712 -0.0375,0.14872 0.315744,0.0241 0.208096,-0.0734 0.628369,-0.26644 0.933943,-0.42892 z m 16.149746,-3.54877 c 3.00817,-1.78834 6.2367,-4.86616 8.18486,-7.80281 2.0839,-3.14122 3.71316,-7.24875 4.45789,-11.23869 0.12046,-0.64537 0.16096,-1.33199 0.16278,-2.75859 0.002,-1.99543 -0.0575,-2.43518 -0.48969,-3.59045 -0.20075,-0.53657 -0.83271,-1.33884 -1.05462,-1.33884 -0.45701,0 -2.13906,1.47814 -3.24075,2.84787 -1.88385,2.34222 -3.35561,5.09529 -5.30026,9.91466 -1.75731,4.35509 -3.48763,9.92196 -4.42475,14.23548 -0.0541,0.24873 -0.12062,0.52592 -0.14799,0.61601 -0.0436,0.14337 0.009,0.13411 0.42017,-0.0744 0.25846,-0.13098 0.90301,-0.49561 1.43236,-0.81029 z m 18.80125,-2.59104 c 2.83947,-1.72763 5.65432,-4.45578 7.5946,-7.36068 2.31305,-3.463 3.84514,-7.31478 3.97536,-9.99424 0.0406,-0.83642 0.015,-1.2111 -0.13096,-1.91318 -0.21133,-1.01647 -0.56336,-1.85744 -0.92095,-2.20002 l -0.25248,-0.24189 -0.45163,0.22887 c -1.12699,0.57109 -2.26949,1.74237 -3.49547,3.58354 -2.36451,3.55106 -4.068,7.77004 -6.33599,15.69232 -0.6187,2.16117 -0.72299,2.5777 -0.64541,2.5777 0.028,0 0.32627,-0.16759 0.66293,-0.37242 z m -59.127213,-1.52388 c 4.05077,-0.63029 8.756691,-2.06979 11.866627,-3.62987 5.058242,-2.53746 8.575824,-6.12994 9.821335,-10.03048 0.433712,-1.35823 0.576238,-2.20139 0.628369,-3.71727 0.0548,-1.59315 -0.04839,-2.53082 -0.401845,-3.6519 -0.768738,-2.43827 -2.368974,-4.13525 -4.673061,-4.95558 -1.68716,-0.60068 -3.159899,-0.33833 -5.275963,0.93983 -4.362732,2.63522 -8.615745,9.29714 -11.454419,17.94224 -0.736188,2.24203 -2.045794,6.85404 -2.048166,7.21303 -9.08e-4,0.10362 0.304891,0.0817 1.537123,-0.11 z"
       id="path158" />
  </g>
</svg>
