<?xml version="1.0" encoding="UTF-8" standalone="no"?>
<svg
   xmlns:dc="http://purl.org/dc/elements/1.1/"
   xmlns:cc="http://creativecommons.org/ns#"
   xmlns:rdf="http://www.w3.org/1999/02/22-rdf-syntax-ns#"
   xmlns:svg="http://www.w3.org/2000/svg"
   xmlns="http://www.w3.org/2000/svg"
   width="211.24309mm"
   height="76.719749mm"
   viewBox="0 0 211.24309 76.719749"
   version="1.1"
   id="svg118">
  <defs
     id="defs112" />
  <metadata
     id="metadata115">
    <rdf:RDF>
      <cc:Work
         rdf:about="">
        <dc:format>image/svg+xml</dc:format>
        <dc:type
           rdf:resource="http://purl.org/dc/dcmitype/StillImage" />
        <dc:title></dc:title>
      </cc:Work>
    </rdf:RDF>
  </metadata>
  <g
     id="layer1"
     transform="translate(2.4867045,-222.1502)">
    <path
       style="fill:#000000;stroke-width:0.0846667"
       d="m 131.53435,293.81989 c -0.66272,-0.13247 -1.13302,-0.40678 -1.70624,-0.99518 -1.59058,-1.63269 -2.43948,-4.25527 -2.7187,-8.39914 -0.0981,-1.4566 -0.10239,-5.41408 -0.007,-6.731 0.037,-0.51224 0.0591,-0.9418 0.049,-0.95458 -0.0101,-0.0128 -0.63849,0.99685 -1.39648,2.24366 -1.74116,2.86395 -3.55921,5.60278 -4.62404,6.96592 -2.24068,2.86839 -3.94437,4.73735 -5.11317,5.60916 -2.32422,1.73365 -4.55345,1.77655 -6.32253,0.12167 -1.76522,-1.65129 -2.88708,-4.84849 -3.45172,-9.83717 -0.12417,-1.097 -0.29726,-3.92918 -0.29993,-4.9077 l -0.001,-0.42037 -1.05521,1.88006 c -1.61329,2.87436 -2.67569,4.4888 -4.53279,6.88808 -2.252866,2.91059 -3.877526,4.23025 -5.678616,4.61256 -1.13325,0.24054 -2.01831,0.0651 -3.67626,-0.72859 -1.44228,-0.69047 -2.59679,-1.90771 -3.4771,-3.66602 -0.39193,-0.78285 -0.56278,-1.24393 -0.96322,-2.59968 -0.054,-0.18288 -0.14858,-0.0332 -0.6954,1.10066 -0.78595,1.6297 -1.89932,3.64898 -2.4736,4.48625 -0.23914,0.34865 -0.70445,0.90938 -1.03403,1.24608 -1.4526,1.48392 -3.34543,1.72678 -5.16184,0.66229 -1.31649,-0.77151 -2.4701,-2.77468 -2.90745,-5.04857 -0.59299,-3.08315 -0.38345,-6.15763 0.91402,-13.41105 0.18326,-1.02446 0.41231,-2.48414 0.50902,-3.24372 0.17411,-1.3677 0.23936,-3.48727 0.10734,-3.48727 -0.10523,0 -1.01986,0.56453 -1.54019,0.95065 -0.25612,0.19005 -1.11558,0.99687 -1.9099,1.79294 -2.19825,2.20307 -3.48057,4.02842 -5.12086,7.2894 -1.67677,3.33353 -2.56694,5.63085 -3.93685,10.16 -0.85552,2.82854 -1.51224,4.87689 -1.68743,5.26324 -0.23761,0.52398 -0.44359,0.6498 -1.0606,0.64783 -0.96785,-0.003 -1.86291,-0.46332 -2.20497,-1.13383 -0.25231,-0.49457 -0.75741,-2.61207 -1.04866,-4.39624 -0.34977,-2.1426 -0.44302,-7.43841 -0.18488,-10.49866 0.60889,-7.21834 2.3387,-15.88056 4.40443,-22.05567 0.24925,-0.74506 0.44,-1.37733 0.4239,-1.40503 -0.0161,-0.0277 -0.78315,-0.0768 -1.70456,-0.10902 -4.96714,-0.17388 -14.25247,-1.32695 -24.95862,-3.09942 -5.59529,-0.92633 -9.21215,-1.26737 -13.462,-1.26934 -5.69043,-0.003 -9.69667,0.88697 -12.6153297,2.80135 -1.64772,1.08076 -3.03325,3.01177 -3.6146,5.03769 -0.24939,0.86909 -0.26702,2.41634 -0.037,3.25077 0.47475,1.72247 1.39856,2.71125 3.04544,3.25963 1.4064497,0.4683 2.5804197,0.35614 4.2857297,-0.40947 1.3864,-0.62244 2.41723,-1.28042 3.22319,-2.05737 0.40401,-0.38947 0.80237,-0.70812 0.88525,-0.70812 0.54921,0 1.186,0.94036 1.17452,1.73445 -0.0132,0.91422 -0.73761,1.8709 -2.09557,2.76754 -1.53516,1.01364 -2.66177,1.42033 -4.11526,1.48553 -2.4516997,0.10999 -5.1491297,-0.95718 -7.0982997,-2.80824 -1.30744,-1.24163 -2.06902,-2.81162 -2.29904,-4.73949 -0.31132,-2.60918 0.7917,-5.50459 2.90359,-7.62194 1.28142,-1.28473 2.96813,-2.24511 5.2723497,-3.00195 2.12178,-0.69692 3.72835,-0.95591 6.96407,-1.12262 2.13036,-0.10977 6.20116,-0.002 8.65519,0.22998 1.93551,0.18264 5.33656,0.64764 7.70013,1.05277 9.69909,1.66249 18.34187,2.90707 22.90234,3.29799 1.27956,0.10968 3.81417,0.2497 4.86694,0.26887 l 0.80295,0.0146 0.76855,-1.93825 c 1.82995,-4.61507 3.21152,-7.39762 4.95596,-9.98159 3.37257,-4.99565 9.16715,-9.03146 15.00113,-10.44798 1.91721,-0.46551 2.72213,-0.55884 4.80413,-0.55701 2.00527,0.002 2.73357,0.0997 3.97934,0.53501 2.32863,0.81373 4.20697,2.42189 5.15832,4.41632 0.50183,1.05203 0.6934,1.87358 0.746,3.19909 0.0716,1.8041 -0.22356,3.06075 -1.08919,4.63741 -0.94738,1.72555 -2.86817,3.91576 -4.49183,5.12184 -2.31861,1.7223 -5.37347,3.23192 -8.39345,4.1478 -3.93552,1.19353 -9.45245,2.0948 -14.99406,2.44949 -0.74097,0.0474 -1.36338,0.1024 -1.38314,0.12215 -0.0787,0.0787 -0.98834,2.63784 -1.46211,4.11355 -1.79238,5.58287 -3.12952,12.08269 -3.92767,19.09233 -0.36434,3.19972 -0.79817,8.17264 -0.70539,8.08567 0.0248,-0.0233 0.3216,-0.80434 0.65946,-1.73567 1.12839,-3.11047 2.79354,-7.01496 4.03376,-9.45848 1.25458,-2.4718 2.84871,-4.66583 4.85072,-6.67617 2.06934,-2.07794 3.17466,-2.68455 4.73425,-2.59819 0.59819,0.0331 0.86386,0.0979 1.48999,0.36336 0.65377,0.27716 0.85319,0.41412 1.404,0.96427 0.4227,0.42218 0.72072,0.80906 0.87246,1.13258 0.56052,1.19509 0.79489,3.0385 0.64797,5.09663 -0.13367,1.87267 -0.30257,2.81612 -1.18989,6.64633 -1.13973,4.91985 -1.39306,6.50218 -1.38936,8.67834 0.002,1.27587 0.0326,1.64452 0.18681,2.26423 0.21486,0.86335 0.54383,1.56144 0.75727,1.60696 0.78084,0.16654 2.04262,-0.82009 3.12161,-2.44089 0.25131,-0.3775 1.32913,-2.39749 2.39514,-4.48887 l 1.9382,-3.8025 0.0955,-1.31611 c 0.20426,-2.81386 0.89411,-5.45223 1.91552,-7.32603 0.96141,-1.76374 2.44095,-3.26358 3.97673,-4.0313 2.22971,-1.11462 5.22998,-1.015 7.11506,0.23624 1.423796,0.94507 2.226986,3.15572 1.775856,4.88773 -0.26167,1.00463 -1.031106,2.16922 -1.932686,2.92523 -1.28174,1.07481 -3.81398,1.81987 -6.21226,1.82785 l -1.20137,0.004 -0.0885,0.50873 c -0.84988,4.88434 -0.92627,8.00964 -0.24641,10.08065 0.25475,0.776 0.64107,1.38289 1.0729,1.68545 0.32961,0.23092 0.42938,0.25659 0.97367,0.25044 1.32606,-0.015 2.62102,-0.72205 4.16256,-2.27289 2.12499,-2.13783 4.548366,-5.68751 7.576316,-11.09759 l 1.04252,-1.86267 0.23256,-1.94733 c 0.51393,-4.30356 1.10822,-7.74132 1.9865,-11.49126 1.90722,-8.14316 4.61821,-14.62269 7.8419,-18.74291 0.72839,-0.93097 3.93048,-4.06276 4.85308,-4.74654 1.70854,-1.26627 3.0586,-1.71934 5.13003,-1.7216 1.57616,-0.002 3.25075,0.83866 4.04687,2.03085 1.20004,1.79708 1.4743,5.75926 0.68433,9.88639 -0.55048,2.87595 -1.55472,6.00572 -2.83811,8.84518 -2.23776,4.95093 -6.57284,10.36731 -10.7018,13.37112 -1.57126,1.1431 -3.35968,2.14588 -5.17606,2.90228 -0.56088,0.23356 -0.5618,0.23451 -0.61299,0.62754 -0.0846,0.64934 -0.88529,8.57161 -1.03672,10.25728 -0.0774,0.86148 -0.14467,2.46168 -0.14949,3.556 -0.01,2.16955 0.08,2.88512 0.51226,4.09042 0.58023,1.61808 1.20656,1.88777 2.69533,1.16057 1.57894,-0.77123 3.33747,-2.60907 6.24459,-6.5262 1.00126,-1.34913 4.05457,-5.99308 6.11809,-9.30535 l 1.716,-2.75444 0.39313,-1.92773 c 1.53461,-7.52518 5.15629,-19.01248 7.79049,-24.71008 1.51862,-3.28467 3.77559,-6.60068 6.01507,-8.83752 2.43053,-2.42767 5.10656,-3.7826 7.4943,-3.79454 2.67357,-0.0134 4.694,1.75286 5.16393,4.51421 0.15585,0.91578 0.20339,3.17538 0.0919,4.36733 -0.58279,6.22974 -3.48225,13.09149 -7.83207,18.535 -1.3246,1.65763 -3.62344,3.77623 -5.39497,4.97196 -1.52245,1.02762 -4.93013,2.50104 -6.71844,2.90494 -0.37253,0.0841 -0.71856,0.19411 -0.76895,0.24438 -0.0504,0.0503 -0.19263,0.53157 -0.31609,1.06958 -0.54172,2.36074 -2.46373,11.70613 -2.72418,13.2458 -0.62494,3.69443 -0.7085,6.1834 -0.25868,7.70467 0.30584,1.03434 0.62869,1.60017 0.93372,1.63644 0.65073,0.0774 2.16274,-1.09163 3.74902,-2.89857 1.90331,-2.16805 3.50429,-4.51906 6.92592,-10.17059 1.20433,-1.98919 1.29955,-2.17814 1.55018,-3.07593 0.54845,-1.96463 1.4539,-4.03595 2.01852,-4.61754 0.1763,-0.1816 0.43913,-0.37995 0.58407,-0.44077 0.25065,-0.10519 0.26567,-0.13866 0.30753,-0.68581 0.0879,-1.14875 0.66124,-2.12409 1.63377,-2.77923 0.77077,-0.51923 1.50522,-0.73366 2.67693,-0.7816 0.92957,-0.038 1.04062,-0.0244 1.905,0.23444 0.50486,0.15116 1.16556,0.40313 1.46824,0.55993 2.36164,1.22339 3.57107,3.80768 3.59102,7.6732 0.009,1.66592 -0.14632,1.53067 1.38332,1.20771 2.43761,-0.51467 5.47897,-1.83479 10.06915,-4.3706 2.19166,-1.21076 5.0694,-2.64815 7.76937,-3.88069 5.0223,-2.2927 10.19139,-3.66921 14.5172,-3.86589 1.24872,-0.0568 3.48742,0.11351 4.70466,0.35785 1.47702,0.29649 3.40208,1.12838 4.49197,1.94113 2.00137,1.49249 2.87491,3.10885 2.85754,5.28752 -0.0166,2.08237 -0.66971,3.78572 -2.00089,5.21841 -1.48229,1.59533 -3.71042,2.50912 -5.66293,2.32244 -1.31169,-0.1254 -2.09641,-0.53045 -2.61651,-1.35056 -0.30368,-0.47886 -0.31217,-0.84445 -0.0275,-1.18281 0.31568,-0.37515 0.69326,-0.46803 1.64836,-0.40544 0.7683,0.0503 0.84234,0.0403 1.27559,-0.17244 0.71422,-0.35078 1.57655,-1.27523 1.99957,-2.1436 0.4657,-0.95598 0.64867,-1.71682 0.65156,-2.70933 0.004,-1.39874 -0.5149,-2.46344 -1.59741,-3.27717 -1.03909,-0.7811 -2.11137,-1.19471 -3.70423,-1.42883 -0.82553,-0.12134 -1.15281,-0.12726 -2.43777,-0.0441 -6.06653,0.39255 -11.25833,2.10829 -20.68974,6.83734 -5.51904,2.76734 -8.35873,3.85606 -11.26937,4.32061 -0.74506,0.11893 -1.3975,0.22772 -1.44987,0.24179 -0.0524,0.0141 -0.1214,0.20956 -0.15343,0.43446 -0.18731,1.31582 -0.91258,3.70148 -1.63004,5.3619 -1.25148,2.89622 -2.96184,4.90906 -4.75531,5.59626 -0.66812,0.25601 -1.97609,0.31631 -2.72221,0.1255 -1.80359,-0.46122 -3.17887,-1.66829 -4.15571,-3.64743 -0.68956,-1.39712 -0.9546,-2.46872 -1.24366,-5.02836 l -0.0611,-0.54103 -1.09375,1.81103 c -3.3581,5.56034 -4.51322,7.17345 -6.69275,9.34636 -1.59193,1.58711 -2.68683,2.13032 -3.83233,1.90133 z m 18.50267,-5.72025 c 1.60129,-0.78344 3.4353,-3.77228 4.41055,-7.18774 0.17443,-0.61086 0.51661,-2.22109 0.51661,-2.43105 0,-0.0816 -0.23035,-0.1627 -0.74084,-0.26077 -1.6263,-0.31243 -3.41225,-1.08446 -4.63238,-2.00246 l -0.67422,-0.50727 -0.19508,0.52644 c -0.72706,1.96204 -1.37245,4.40831 -1.59077,6.0295 -0.17638,1.30981 -0.13678,3.42031 0.0791,4.21387 0.25285,0.92959 0.71449,1.61554 1.23488,1.83493 0.33091,0.13952 1.07148,0.0393 1.59218,-0.21545 z m 5.03724,-12.32135 c -0.0274,-1.86053 -0.35529,-3.52681 -0.92951,-4.72336 -0.31313,-0.6525 -0.91152,-1.37357 -1.31154,-1.58042 -0.32625,-0.16872 -0.86722,-0.14846 -1.24993,0.0468 -0.70634,0.36034 -1.52438,1.60404 -1.7092,2.59853 -0.23936,1.28795 0.27116,2.38134 1.57337,3.36969 0.86657,0.6577 1.87712,1.11858 3.05106,1.39147 0.61312,0.14252 0.5946,0.17801 0.57575,-1.1027 z m -59.609266,-1.71056 c 0.99925,-0.26124 1.74375,-0.64381 2.25998,-1.16128 1.39354,-1.39691 1.46436,-3.70806 0.15708,-5.1263 -0.30145,-0.32702 -0.38705,-0.37258 -0.70013,-0.37258 -0.61055,0 -1.33479,0.4338 -2.25368,1.34987 -0.92045,0.91765 -1.42985,1.60335 -1.93049,2.59868 -0.33117,0.6584 -0.85951,2.1231 -0.98488,2.73038 l -0.0592,0.28659 1.34274,-0.0447 c 1.0625,-0.0354 1.51509,-0.0898 2.16855,-0.26063 z m 17.083466,-4.25471 c 2.81498,-1.14383 6.02727,-3.67976 8.67822,-6.85102 2.41352,-2.88721 4.00289,-5.3746 5.27433,-8.25443 2.52467,-5.71834 3.48102,-11.96569 2.37888,-15.53987 -0.38806,-1.25846 -1.04234,-2.11668 -1.96534,-2.5779 -1.15362,-0.57647 -2.21836,-0.14307 -3.87267,1.57636 -0.95833,0.99607 -1.27084,1.42461 -2.23876,3.07008 -0.94807,1.61169 -1.24145,2.18212 -2.12142,4.12465 -3.08701,6.81454 -5.27817,14.40848 -6.55811,22.72846 -0.2751,1.78827 -0.2898,1.94288 -0.18467,1.94288 0.0385,0 0.31283,-0.0987 0.60954,-0.21921 z m 22.39838,-2.86025 c 2.07421,-0.71035 4.62317,-1.97939 5.9245,-2.94961 1.23594,-0.92146 3.66902,-3.36287 4.66531,-4.68126 3.50368,-4.63649 5.79979,-9.80469 6.77656,-15.25305 0.20357,-1.13546 0.22594,-1.46563 0.23149,-3.41595 0.006,-1.96997 -0.0105,-2.22419 -0.18351,-2.90362 -0.22312,-0.87608 -0.5042,-1.50004 -0.8802,-1.95395 l -0.27164,-0.32791 -0.5376,0.0431 c -1.50098,0.12048 -3.92169,1.90027 -5.35957,3.94055 -2.20662,3.13105 -4.22983,7.05155 -5.84152,11.31945 -1.42332,3.76908 -3.83351,11.31309 -4.86894,15.23999 -0.12279,0.46567 -0.24223,0.91335 -0.26543,0.99484 -0.0524,0.18393 -0.0896,0.18714 0.61055,-0.0526 z m -65.157326,-17.0288 c 2.76237,-0.14832 6.84796,-0.68142 9.79299,-1.27782 7.86749,-1.59327 13.46433,-5.48459 15.14983,-10.53325 0.221,-0.66196 0.23992,-0.8181 0.23601,-1.94733 -0.005,-1.44914 -0.16455,-2.1746 -0.72282,-3.28705 -0.67488,-1.34485 -2.10118,-2.58672 -3.46605,-3.01788 -2.34591,-0.74107 -6.79027,0.57382 -10.33142,3.05662 -4.0894,2.8672 -7.07517,6.39282 -9.53861,11.26325 -0.94615,1.87063 -2.59728,5.71949 -2.49673,5.82002 0.026,0.026 0.12734,0.0312 0.22521,0.0115 0.0979,-0.0197 0.61608,-0.0593 1.15159,-0.0881 z"
       id="path134" />
  </g>
</svg>
