<?xml version="1.0" encoding="UTF-8" standalone="no"?>
<svg
   xmlns:dc="http://purl.org/dc/elements/1.1/"
   xmlns:cc="http://creativecommons.org/ns#"
   xmlns:rdf="http://www.w3.org/1999/02/22-rdf-syntax-ns#"
   xmlns:svg="http://www.w3.org/2000/svg"
   xmlns="http://www.w3.org/2000/svg"
   width="213.13675mm"
   height="69.91861mm"
   viewBox="0 0 213.13675 69.91861"
   version="1.1"
   id="svg32">
  <defs
     id="defs26" />
  <metadata
     id="metadata29">
    <rdf:RDF>
      <cc:Work
         rdf:about="">
        <dc:format>image/svg+xml</dc:format>
        <dc:type
           rdf:resource="http://purl.org/dc/dcmitype/StillImage" />
        <dc:title></dc:title>
      </cc:Work>
    </rdf:RDF>
  </metadata>
  <g
     id="layer1"
     transform="translate(0.8499118,-229.55778)">
    <path
       style="fill:#000000;stroke-width:0.0818662"
       d="m 150.25721,294.38467 c -0.64979,-0.18331 -1.09926,-0.48233 -1.69957,-1.13072 -0.94913,-1.02514 -1.52639,-2.45862 -1.90875,-4.73984 -0.38814,-2.31573 -0.4776,-3.25838 -0.64664,-6.81334 l -0.0582,-1.22207 -0.85353,1.1402 c -2.57024,3.43351 -4.84867,6.057 -6.38873,7.35623 -1.73361,1.46255 -2.69283,1.86346 -4.4646,1.86606 -0.83786,9.6e-4 -1.07968,-0.03 -1.64374,-0.2122 -1.11936,-0.36159 -2.02644,-1.05531 -2.69301,-2.05955 -0.44146,-0.66506 -0.99214,-1.87011 -1.2069,-2.64099 -0.10281,-0.36914 -0.2054,-0.66939 -0.22792,-0.66721 -0.0225,0.002 -0.61755,0.87684 -1.32229,1.94369 -2.78902,4.22202 -3.81045,5.3217 -5.46786,5.88673 -1.01155,0.34486 -2.57856,0.21812 -3.44311,-0.27846 -1.76958,-1.01643 -2.71435,-4.19148 -2.59566,-8.7231 0.0533,-2.03346 0.1521,-2.79144 0.63686,-4.88425 0.69874,-3.01662 1.05827,-5.12689 1.05827,-6.21151 0,-0.50274 -0.14739,-1.16436 -0.25938,-1.16436 -0.60799,0 -3.22813,2.3672 -4.45592,4.02575 -0.83625,1.12965 -2.37147,3.58972 -3.02689,4.85039 -0.60736,1.1682 -2.27547,4.76943 -3.22622,6.96496 -0.97818,2.25887 -1.89737,4.13204 -2.19252,4.46804 -0.30156,0.34329 -0.7047,0.48491 -1.37981,0.48473 -0.9057,0 -1.27792,-0.34674 -1.58164,-1.47235 -0.84634,-3.13658 -1.168,-10.18502 -0.77716,-17.02927 0.11933,-2.08984 0.4054,-5.41109 0.49886,-5.79203 0.0248,-0.10137 0.022,-0.18419 -0.007,-0.18419 -0.0282,0 -0.37954,0.16477 -0.78054,0.36617 -2.560034,1.28573 -6.535607,2.86846 -9.705562,3.8639 -3.725368,1.16989 -7.180235,1.65861 -11.753089,1.6626 -4.710423,0.003 -9.178145,-0.79221 -14.013601,-2.49782 l -0.879377,-0.31017 -0.717012,0.21782 c -0.912861,0.27729 -2.039392,0.55152 -3.541392,0.86206 -3.993181,0.82563 -9.388334,0.92995 -17.314689,0.33479 -7.179061,-0.53905 -10.505625,-0.68607 -14.326577,-0.63319 -4.186888,0.0579 -7.13757,0.36379 -10.478867,1.0861 -1.873922,0.4051 -4.27845,1.25352 -5.628587,1.98599 -1.7949269,0.97377 -3.5996343,2.57473 -4.3511057,3.85989 -0.4814936,0.82343 -0.9205194,1.84087 -1.0690132,2.47742 -0.1336949,0.57309 -0.1568293,0.61107 -0.4711184,0.7736 -0.183386,0.0948 -0.4095721,0.12189 -0.8233408,0.0985 -0.5014263,-0.0284 -0.5940992,-0.0597 -0.7654881,-0.25893 -0.2303406,-0.2678 -0.2119656,-0.52371 0.112569,-1.5679 0.7035142,-2.26353 2.3125007,-4.13848 4.8691326,-5.67395 1.5283746,-0.91793 3.0440326,-1.54278 5.2961056,-2.18336 1.891338,-0.53798 3.008766,-0.76887 5.327764,-1.10084 5.545846,-0.79391 12.000377,-0.77202 22.676923,0.0769 4.004569,0.31842 5.896441,0.4081 8.601929,0.40776 3.969254,-8.2e-4 6.332429,-0.24326 9.145585,-0.93957 0.797553,-0.1974 1.534822,-0.39054 1.638374,-0.42916 0.16313,-0.0608 0.01749,-0.15604 -1.090292,-0.71273 -3.772988,-1.89598 -5.448929,-3.78655 -5.45378,-6.15218 -0.0024,-1.18018 0.276201,-1.929 1.004145,-2.6987 0.700319,-0.74047 1.842421,-1.09661 3.168515,-0.98801 1.273509,0.10425 2.56933,0.80764 3.895428,2.11443 0.401443,0.39559 0.737682,0.71001 0.747198,0.69872 0.0095,-0.0113 0.100694,-0.18632 0.202616,-0.38893 0.336478,-0.66888 0.787446,-1.26108 1.412109,-1.85429 0.999938,-0.94962 2.06775,-1.35152 3.573408,-1.34496 2.243755,0.01 3.650003,1.12558 3.757436,2.9814 0.04702,0.81233 -0.07714,1.39019 -0.479761,2.2327 -0.892824,1.86831 -2.688697,3.5955 -5.283763,5.0817 l -1.038833,0.59493 0.368464,0.15795 c 0.624368,0.26764 2.166473,0.74369 3.624779,1.11899 3.367989,0.86678 5.460423,1.13534 8.759678,1.12429 2.921467,-0.01 5.349404,-0.24463 7.941016,-0.76815 2.259302,-0.45641 7.190987,-2.11457 10.327419,-3.47235 0.931337,-0.40319 3.322965,-1.60312 3.569975,-1.79114 0.11298,-0.0861 0.23861,-0.67887 0.58495,-2.7607 1.09629,-6.58964 2.75006,-12.30536 4.79814,-16.58318 2.03075,-4.24166 5.24836,-8.17144 8.34934,-10.1974 2.2665,-1.48077 4.44318,-2.24348 6.91769,-2.42395 4.54832,-0.33174 7.5027,1.6869 8.18364,5.59167 0.18486,1.06006 0.24757,3.02937 0.13311,4.17913 -0.0537,0.54032 -0.24413,1.71083 -0.42298,2.60115 -1.00012,4.97863 -2.86898,8.83687 -5.77565,11.92381 -3.88283,4.12366 -8.70583,6.50038 -15.37533,7.57678 -0.70464,0.11373 -1.38783,0.20679 -1.51819,0.20679 -0.21679,0 -0.24106,0.0297 -0.28459,0.34793 -0.0262,0.19136 -0.15947,1.12156 -0.29621,2.06712 -0.13676,0.94555 -0.32089,2.27179 -0.40921,2.94717 -0.0883,0.6754 -0.26874,2.02005 -0.40094,2.98813 -0.1322,0.96806 -0.26137,1.96273 -0.28705,2.21037 -0.0257,0.24766 -0.13589,1.18707 -0.24494,2.08759 -0.10901,0.90054 -0.30987,2.76094 -0.44627,4.13424 -0.1364,1.37331 -0.26918,2.64427 -0.2951,2.82439 -0.0281,0.19523 -0.0175,0.2944 0.0262,0.24559 0.0402,-0.0451 0.46969,-1.18705 0.95427,-2.53785 1.05184,-2.93203 1.33349,-3.6138 2.18354,-5.28557 1.72826,-3.39886 3.73223,-6.07221 5.75926,-7.68301 2.1673,-1.72227 5.51294,-2.21896 7.79445,-1.15716 1.9097,0.88877 2.24994,2.69669 1.34118,7.12676 -0.37372,1.82173 -1.2455,5.57436 -1.7496,7.53112 -0.24939,0.96806 -0.5115,2.18229 -0.58245,2.69828 -0.16495,1.19932 -0.16561,2.74412 -0.002,3.44057 0.11401,0.48371 0.4665,1.2291 0.58125,1.2291 0.12466,0 0.88112,-0.62998 1.3207,-1.09991 1.27084,-1.35854 6.48448,-8.53319 6.63697,-9.13337 0.04,-0.15758 0.15466,-0.6365 0.25468,-1.06424 0.22854,-0.97729 0.79191,-2.47931 1.35918,-3.62381 1.68598,-3.40163 4.30079,-5.29129 7.3618,-5.32023 2.7088,-0.0256 4.33487,1.44453 4.32394,3.90927 -0.006,1.26887 -0.47819,2.29977 -1.49302,3.2571 -1.33766,1.26189 -3.39043,2.02326 -5.455,2.02326 h -0.76066 l -0.0849,0.26606 c -0.18011,0.56434 -0.74192,2.92072 -0.86368,3.62258 -0.21116,1.2171 -0.14905,2.67416 0.15779,3.70084 0.16202,0.54208 0.57213,1.08679 0.96273,1.2787 0.28388,0.13948 0.33337,0.14092 0.743,0.0218 1.3883,-0.40359 3.34372,-2.33471 7.05385,-6.96617 1.25296,-1.5641 3.72819,-4.75644 3.9483,-5.09217 0.076,-0.11596 0.14412,-0.56837 0.19099,-1.26893 0.11034,-1.64863 0.58414,-4.994 0.94848,-6.69655 1.03883,-4.85446 2.94693,-10.69247 4.61562,-14.12191 1.79065,-3.6801 4.12676,-6.83714 6.18934,-8.36428 1.36691,-1.01208 3.35164,-1.83981 4.76112,-1.98564 1.34722,-0.13938 2.67581,0.0755 3.64731,0.5898 1.26261,0.66848 2.15505,2.45172 2.30339,4.60255 0.21955,3.18363 -0.88863,7.14306 -3.20008,11.4336 -2.61531,4.85456 -6.80588,9.5767 -10.63287,11.98164 -0.76225,0.479 -3.10415,1.67674 -3.27851,1.67674 -0.0543,0 -0.13838,0.0475 -0.18665,0.10569 -0.12223,0.14728 -0.95015,4.72373 -1.1509,6.36169 -0.0911,0.74293 -0.21329,1.73761 -0.27166,2.21038 -0.0674,0.54601 -0.10613,1.84517 -0.10613,3.56118 0,2.29896 0.0217,2.79362 0.14508,3.31913 0.24717,1.05206 0.81845,2.08705 1.2852,2.32841 0.18844,0.0975 0.25814,0.0931 0.5392,-0.0332 0.82019,-0.36891 2.63871,-1.96498 3.91182,-3.43333 1.74159,-2.00862 4.69386,-6.04984 7.84305,-10.73596 l 1.3479,-2.00573 0.22119,-1.35078 c 0.67216,-4.10471 2.67066,-11.80613 4.00406,-15.43008 1.77353,-4.82004 4.41503,-9.18688 7.16006,-11.83677 1.40149,-1.35289 2.478,-2.04346 3.95571,-2.53754 1.43894,-0.4811 3.09315,-0.39601 4.13152,0.21251 0.76186,0.44648 1.43247,1.43707 1.71987,2.5405 0.35483,1.36224 0.32119,3.87212 -0.0779,5.81753 -0.52534,2.56051 -1.30547,4.74309 -2.65907,7.4394 -1.9691,3.92239 -4.67245,7.481 -7.82169,10.29631 -1.00926,0.90223 -2.644,1.99922 -3.99558,2.6812 l -1.02014,0.51476 -0.54151,2.7094 c -0.99322,4.96963 -1.41802,9.34294 -1.11269,11.45486 0.14985,1.03642 0.67946,1.84229 1.14041,1.73527 0.72506,-0.16833 2.08972,-1.11082 3.38952,-2.34093 1.4657,-1.38716 3.18409,-3.58738 6.93267,-8.87658 l 1.91465,-2.70158 0.33766,-1.02334 c 0.5922,-1.79473 1.11078,-2.58437 1.9417,-2.95658 0.37085,-0.16611 0.55895,-0.19192 1.41032,-0.19347 0.89812,-0.002 1.0138,0.0157 1.34855,0.20324 0.67956,0.3805 0.70034,0.64878 0.17805,2.29671 -0.57029,1.79933 -1.06989,4.03732 -1.25132,5.60538 -0.0572,0.49398 -0.1037,1.61653 -0.10337,2.49455 8.2e-4,1.70344 0.1149,2.44505 0.52356,3.39745 0.36941,0.86097 1.27134,1.76012 1.76552,1.76012 0.0977,0 0.43389,-0.1282 0.74707,-0.28488 2.10902,-1.0551 4.18549,-4.30367 5.4606,-8.54292 0.20764,-0.69037 0.37753,-1.30344 0.37753,-1.36239 0,-0.0589 -0.0995,-0.13217 -0.22102,-0.16267 -0.45189,-0.11342 -1.97328,-0.84644 -2.71678,-1.30898 -2.51985,-1.56761 -3.8357,-3.36194 -4.53176,-6.1797 -0.23799,-0.9634 -0.23368,-2.40052 0.01,-3.32087 0.51044,-1.92814 1.58363,-3.05242 3.37549,-3.53626 0.72102,-0.19468 2.37333,-0.19385 3.1017,0.002 1.3995,0.37549 2.42901,1.20085 3.08146,2.47044 0.59382,1.15549 0.77669,1.93074 0.977,4.14196 0.11583,1.2785 0.12183,1.68512 0.0397,2.68385 -0.11489,1.39666 -0.40411,3.28905 -0.62911,4.11633 -0.0497,0.18294 0.56871,0.31445 1.47878,0.31445 1.91587,0 3.85043,-1.07875 6.18602,-3.44946 0.70396,-0.71456 0.81318,-0.79445 1.15166,-0.84222 0.44768,-0.0633 1.00352,0.0951 1.04236,0.29667 0.0417,0.21628 -0.75959,1.34388 -1.4914,2.09888 -1.4728,1.51947 -2.92775,2.34265 -5.1234,2.89873 -0.58092,0.14711 -0.94033,0.1769 -2.17576,0.18035 l -1.4799,0.003 -0.26601,0.85959 c -0.98414,3.18015 -2.62273,6.21717 -4.21831,7.81834 -1.48555,1.49075 -2.73747,2.08747 -4.37952,2.08747 -1.24907,0 -2.30594,-0.43348 -3.25513,-1.33513 -1.67413,-1.59025 -2.75654,-4.18009 -2.97931,-7.12849 -0.0514,-0.68064 -0.0986,-1.24321 -0.1048,-1.25017 -0.006,-0.007 -0.41661,0.58152 -0.91189,1.30771 -1.52155,2.23091 -3.72519,5.29004 -4.55411,6.32214 -1.59031,1.98004 -3.52126,3.60466 -5.02423,4.22715 -0.6352,0.26308 -0.6896,0.27126 -1.8053,0.27155 h -1.15037 l -0.62159,-0.30721 c -1.46262,-0.72287 -2.25389,-2.18264 -2.80664,-5.17783 -0.27736,-1.50295 -0.36862,-2.53297 -0.37975,-4.28617 -0.004,-0.83948 -0.033,-1.62655 -0.0614,-1.74908 -0.0468,-0.201 -0.18061,-0.0292 -1.37268,1.76012 -2.94182,4.41584 -4.52685,6.49509 -6.48326,8.5048 -1.69183,1.73791 -2.88626,2.64435 -3.96948,3.01241 -0.67672,0.22992 -1.83343,0.29049 -2.41496,0.12644 z m -14.66353,-14.99131 c 1.64975,-0.48985 2.63188,-2.23048 2.36106,-4.18452 -0.0908,-0.6548 -0.37048,-1.44314 -0.48659,-1.37137 -0.14432,0.0892 -1.01245,1.30768 -1.39616,1.9596 -0.42201,0.71703 -0.94707,1.88043 -1.3778,3.05293 l -0.24812,0.6754 h 0.35148 c 0.19331,0 0.55157,-0.0594 0.79613,-0.13204 z m 59.78605,-2.38711 c 0.12714,-0.20571 0.32965,-2.60838 0.32935,-3.90734 -8.2e-4,-3.35756 -0.9138,-5.88885 -2.52347,-6.99632 -0.54735,-0.3766 -0.71251,-0.38802 -1.02929,-0.0712 -0.35915,0.35917 -0.78783,1.27874 -0.94897,2.03569 -0.20373,0.95703 -0.11525,2.64092 0.19986,3.8039 0.63895,2.35818 1.46672,3.6266 3.11687,4.77611 0.59031,0.4112 0.77548,0.48895 0.85565,0.35922 z m -43.06766,-3.18216 c 1.78797,-1.01022 3.26509,-2.18 5.01349,-3.97028 1.4042,-1.43784 1.84327,-1.94406 2.84946,-3.28534 2.72651,-3.63445 4.75757,-8.23218 5.33824,-12.08418 0.2123,-1.40847 0.13681,-3.52087 -0.16883,-4.72343 -0.26543,-1.04433 -1.26056,-2.57258 -1.67516,-2.57258 -0.27412,0 -1.13722,0.66126 -1.85921,1.42446 -1.40576,1.48596 -3.18205,4.183 -4.48057,6.80308 -1.94778,3.93015 -3.78682,9.73077 -5.33376,16.8235 -0.20132,0.92304 -0.386,1.74272 -0.4104,1.82151 -0.0244,0.0788 -0.0223,0.14327 0.004,0.14327 0.027,0 0.35193,-0.171 0.72184,-0.38001 z m 19.73872,-0.8386 c 1.49353,-1.0622 3.43689,-2.91766 4.99288,-4.767 0.39345,-0.46761 1.22043,-1.60615 1.83774,-2.53009 2.61194,-3.90931 4.0299,-7.58655 4.68704,-12.15491 0.2156,-1.49875 0.19284,-3.6926 -0.0463,-4.4623 -0.20879,-0.6721 -0.59999,-1.35869 -0.95885,-1.6829 l -0.31898,-0.28818 -0.33771,0.18735 c -0.52214,0.28967 -1.64796,1.39936 -2.30616,2.27313 -1.15642,1.53516 -2.64781,4.12866 -3.39864,5.91023 -1.30465,3.09558 -2.63612,7.31736 -3.90719,12.38865 -0.63573,2.5365 -1.34024,5.56432 -1.34034,5.76051 -6e-5,0.13071 0.11079,0.0665 1.0965,-0.63449 z M 66.997583,268.26352 c 0.892538,-0.59371 1.94839,-1.55052 2.495158,-2.2611 0.844916,-1.09802 1.416506,-2.55351 1.293411,-3.29353 -0.105569,-0.63475 -0.376674,-1.21149 -0.740463,-1.57528 -0.195562,-0.19556 -0.414979,-0.35555 -0.487594,-0.35555 -0.218681,0 -1.168673,0.97858 -1.645968,1.69549 -0.246123,0.3697 -0.750279,1.30911 -1.120339,2.0876 -0.897507,1.88802 -1.031317,2.11752 -1.339166,2.29686 -0.31029,0.18072 -1.004358,0.26716 -1.522036,0.18954 -0.570937,-0.0855 -0.725349,-0.2904 -1.120548,-1.48604 -0.46816,-1.41639 -0.827868,-2.13633 -1.362579,-2.72721 -0.544442,-0.60163 -1.411254,-1.26189 -1.903376,-1.44983 l -0.365767,-0.13969 -0.190043,0.23736 c -0.319575,0.39917 -0.464364,0.96555 -0.406365,1.58959 0.07129,0.76709 0.381408,1.78263 0.709852,2.32456 0.731688,1.20727 2.778546,2.81843 4.858445,3.82424 l 0.652202,0.31541 0.702053,-0.3731 c 0.38613,-0.20522 1.058038,-0.6099 1.493123,-0.89932 z m 42.106797,-3.19257 c 4.18495,-0.83386 7.41474,-2.27124 10.31513,-4.59061 1.56835,-1.25417 2.68173,-2.41094 3.92903,-4.08213 2.39819,-3.21317 3.87626,-7.5544 4.0277,-11.82965 0.0411,-1.1594 0.0218,-1.51319 -0.13546,-2.49693 -0.32671,-2.04275 -0.82828,-3.17069 -1.87901,-4.22542 -0.69657,-0.69923 -1.3282,-1.0651 -2.1217,-1.22899 -0.48175,-0.0995 -0.54198,-0.0932 -1.21683,0.12654 -3.00316,0.97801 -6.11367,3.88352 -8.87875,8.29358 -2.52317,4.02421 -4.87818,11.23825 -6.04721,18.52416 -0.13364,0.83299 -0.26352,1.60188 -0.2886,1.70866 -0.0451,0.19195 -0.0402,0.19349 0.42919,0.13612 0.26112,-0.0319 1.10106,-0.18281 1.86651,-0.33533 z"
       id="path48" />
  </g>
</svg>
