<?xml version="1.0" encoding="UTF-8" standalone="no"?>
<svg
   xmlns:dc="http://purl.org/dc/elements/1.1/"
   xmlns:cc="http://creativecommons.org/ns#"
   xmlns:rdf="http://www.w3.org/1999/02/22-rdf-syntax-ns#"
   xmlns:svg="http://www.w3.org/2000/svg"
   xmlns="http://www.w3.org/2000/svg"
   width="205.98183mm"
   height="107.98864mm"
   viewBox="0 0 205.98183 107.98864"
   version="1.1"
   id="svg56">
  <defs
     id="defs50" />
  <metadata
     id="metadata53">
    <rdf:RDF>
      <cc:Work
         rdf:about="">
        <dc:format>image/svg+xml</dc:format>
        <dc:type
           rdf:resource="http://purl.org/dc/dcmitype/StillImage" />
        <dc:title></dc:title>
      </cc:Work>
    </rdf:RDF>
  </metadata>
  <g
     id="layer1"
     transform="translate(-1.1020324,-190.5856)">
    <path
       style="fill:#000000;stroke-width:0.0846667"
       d="m 113.45937,293.44876 c -0.86854,-0.22709 -1.67534,-0.70494 -2.47491,-1.46583 -2.09487,-1.99354 -3.5503,-5.64223 -4.88417,-12.24427 -0.94335,-4.66917 -1.364,-9.16388 -1.51597,-16.19793 l -0.0573,-2.65127 -0.54202,1.21194 c -1.15545,2.58356 -2.95782,6.12579 -3.63229,7.1386 -1.618978,2.43113 -3.129268,3.66654 -5.139018,4.20369 -0.97056,0.2594 -2.84409,0.25873 -3.81,-10e-4 -0.76847,-0.20692 -1.85571,-0.70383 -2.55367,-1.16712 -1.06941,-0.70983 -2.50009,-2.27674 -3.18507,-3.48836 -0.17727,-0.31356 -0.27561,-0.41788 -0.31924,-0.33866 -0.0347,0.063 -0.31657,1.10331 -0.62642,2.3119 -2.03663,7.94385 -3.1103,11.23709 -4.75178,14.57495 -1.36153,2.7686 -2.89258,4.72063 -4.22715,5.38945 -1.70453,0.85422 -4.06599,0.72855 -5.66016,-0.30121 -2.44021,-1.57629 -3.93021,-5.17467 -4.51388,-10.90108 -0.20669,-2.02789 -0.20656,-6.94329 0,-9.73187 0.18345,-2.47347 0.47761,-5.25708 0.86117,-8.14901 0.16214,-1.22246 0.42588,-3.21325 0.5861,-4.42399 0.53454,-4.03922 0.66707,-5.58009 0.66996,-7.78933 0.002,-1.74299 -0.0222,-2.1464 -0.172,-2.83633 -0.0961,-0.44239 -0.2373,-0.95363 -0.31387,-1.1361 l -0.1392,-0.33177 -0.26096,0.2471 c -0.44934,0.42549 -1.33568,1.57008 -1.83042,2.36377 -1.26302,2.02614 -2.10713,4.39995 -2.81469,7.91552 -0.73517,3.65271 -1.13516,6.88001 -1.60563,12.95481 -0.27055,3.49341 -0.43332,4.88029 -0.6493,5.53223 -0.30558,0.9224 -1.00341,1.31871 -2.44633,1.38934 -2.13718,0.10461 -3.10974,-0.5279 -4.58917,-2.98457 -2.03331,-3.3764 -3.37972,-7.13076 -4.55457,-12.7 -0.94309,-4.47062 -1.45151,-8.71404 -1.66264,-13.87688 -0.0554,-1.35509 -0.10856,-2.47481 -0.1181,-2.48828 -0.01,-0.0135 -0.90802,0.20267 -1.99662,0.48032 -2.44546,0.62371 -4.80789,1.15154 -9.13362,2.04073 -9.82908,2.02043 -13.97369,3.23494 -17.73767,5.19771 -3.86819,2.01712 -6.3872,4.38002 -7.7352996,7.25593 -1.61531,3.44595 -1.87054,5.30958 -1.10622,8.07743 0.0898,0.32503 0.16319,0.73363 0.16319,0.90799 0,0.26544 -0.0406,0.33805 -0.2498,0.44621 -0.28429,0.14701 -1.03589,0.17205 -1.27783,0.0426 -0.2227,-0.11919 -0.30644,-0.29709 -0.72596,-1.54217 -0.46808,-1.39001 -0.62481,-2.23276 -0.62481,-3.361 0,-2.48868 1.13606,-5.89225 2.61596,-7.83723 1.8355196,-2.41236 5.0755296,-4.75314 8.7716996,-6.33722 3.96257,-1.69825 7.79205,-2.74765 16.764,-4.59388 5.35022,-1.10095 8.60841,-1.8566 11.72633,-2.71958 l 0.55034,-0.15231 0.0529,-3.30084 c 0.15459,-9.65199 1.24076,-17.53081 3.24467,-23.53617 2.38941,-7.16058 6.81327,-13.44675 11.64612,-16.54876 3.65765,-2.34769 8.30874,-3.04515 12.065,-1.80922 3.30254,1.08664 5.87865,3.6546 6.98805,6.96592 1.23701,3.69223 0.95294,8.00164 -0.89701,13.60779 -1.90681,5.7785 -4.6223,10.34244 -8.41712,14.14674 -3.89619,3.90591 -8.35795,6.69663 -14.93181,9.33946 -0.78388,0.31514 -1.44493,0.59268 -1.46902,0.61676 -0.064,0.064 0.12723,5.92825 0.27371,8.39465 0.31023,5.22367 1.01256,12.05763 1.6141,15.70566 0.11901,0.72178 0.22473,1.32071 0.23491,1.33094 0.0102,0.0102 0.14388,-0.94226 0.29709,-2.11666 0.15321,-1.1744 0.48621,-3.38967 0.74001,-4.9228 1.01608,-6.1379 1.73602,-8.85234 3.07819,-11.60581 1.39679,-2.86553 2.93618,-4.48126 4.7419,-4.97707 0.72771,-0.19981 1.04283,-0.23836 1.9396,-0.2373 3.54149,0.004 5.41169,2.14776 6.0637,6.95004 0.0731,0.53858 0.1543,1.95733 0.18166,3.175 0.0767,3.41092 -0.0967,6.22182 -1.15358,18.71133 -0.3562,4.20918 -0.44526,6.04832 -0.4469,9.22866 -0.002,3.53338 0.14995,5.16315 0.61935,6.65045 0.21116,0.66907 0.58875,1.45084 0.72208,1.49504 0.0518,0.0172 0.3316,-0.24643 0.62171,-0.58579 1.83291,-2.14412 3.71604,-5.9737 5.29938,-10.77703 0.84866,-2.57453 2.34117,-7.79996 3.54459,-12.40991 l 0.38841,-1.48793 -0.14478,-0.88274 c -0.22552,-1.37502 -0.20167,-4.64535 0.0455,-6.23563 0.48531,-3.12273 1.47607,-5.97147 2.764,-7.94734 0.98754,-1.51502 2.78246,-3.05855 4.29634,-3.69462 1.9364,-0.81358 4.1478,-0.94519 5.96728,-0.35513 2.63627,0.85495 4.190848,3.26383 3.845288,5.9584 -0.32037,2.49811 -1.992208,4.7609 -4.962598,6.71675 -1.31507,0.8659 -3.33971,1.74154 -4.54782,1.96687 -0.17296,0.0323 -0.35826,0.11141 -0.41176,0.17587 -0.15074,0.18164 -0.0511,4.57694 0.12937,5.70708 0.18635,1.16684 0.56949,2.76296 0.85362,3.556 0.49666,1.3862 1.41294,2.7841 2.10546,3.2121 l 0.3035,0.18757 0.44515,-0.20588 c 1.3379,-0.61876 2.86999,-2.27337 4.22448,-4.56234 1.22935,-2.07748 3.957808,-7.84745 5.611568,-11.86699 l 0.71287,-1.73267 0.0928,-1.76573 c 0.82303,-15.65274 2.62312,-26.32251 5.77282,-34.21754 1.4408,-3.61152 3.23905,-7.04418 4.92931,-9.40951 1.33179,-1.86369 3.27628,-3.65781 4.83991,-4.46563 2.49052,-1.28667 5.51844,-1.58543 7.60128,-0.75001 1.98567,0.79646 3.21283,2.37735 3.87229,4.98849 0.92431,3.65989 0.73053,7.11403 -0.73174,13.04331 -1.56753,6.35612 -4.02281,12.36118 -6.91428,16.91071 -2.65324,4.1747 -6.38726,8.09206 -10.01973,10.51167 l -1.10034,0.73294 -0.14535,2.90026 c -0.49063,9.78998 -0.58245,12.51044 -0.58367,17.29358 -0.002,8.92597 0.67822,17.09951 1.67889,20.16496 0.24711,0.75703 0.81496,1.88878 1.05807,2.10878 0.1614,0.14606 0.17725,0.14041 0.51049,-0.18183 1.3632,-1.3182 3.08434,-4.35666 4.50476,-7.95258 1.49983,-3.79691 2.6079,-7.53717 6.19552,-20.91266 1.46003,-5.44338 2.00073,-7.38286 2.20409,-7.90613 0.0673,-0.17326 0.17619,-1.07956 0.25038,-2.08454 0.39189,-5.30905 1.13592,-11.40813 1.95598,-16.03404 1.38377,-7.80573 3.84648,-15.68941 6.35622,-20.34769 2.6317,-4.88466 7.05454,-8.66383 10.93047,-9.33973 0.94889,-0.16548 2.56237,-0.16139 3.38941,0.009 1.67204,0.34364 2.77665,1.15783 3.47388,2.56056 0.74247,1.49376 0.98504,2.76338 0.98145,5.13698 -0.007,4.49595 -1.27489,9.86591 -3.88878,16.46767 -2.3324,5.89083 -4.70011,10.00531 -8.11223,14.097 -1.23822,1.48482 -4.04331,4.24533 -5.52045,5.43268 l -1.27272,1.02306 -0.23401,2.74112 c -0.71661,8.39431 -0.86425,10.63532 -1.00428,15.24329 -0.22114,7.27743 0.29136,13.7749 1.34028,16.99209 0.27968,0.85782 1.07426,2.46915 1.34129,2.72001 l 0.21283,0.19995 0.67221,-0.69053 c 1.73165,-1.77882 3.37684,-5.00215 5.21545,-10.21834 1.52714,-4.33257 4.10215,-12.2581 5.07361,-15.61591 l 0.47619,-1.64591 -0.0989,-0.61293 c -0.30939,-1.91789 0.2583,-4.47891 1.17088,-5.28219 l 0.37423,-0.32942 -0.43287,-0.70281 c -0.23808,-0.38656 -0.55398,-1.06478 -0.702,-1.50716 -0.25666,-0.76706 -0.26906,-0.86516 -0.26757,-2.11667 10e-4,-1.1824 0.0242,-1.38601 0.22989,-2.05641 0.84792,-2.76315 2.61942,-4.4558 5.4342,-5.1923 0.72661,-0.19013 1.02675,-0.22207 2.11666,-0.22525 2.58045,-0.008 4.40843,0.75812 6.28125,2.63095 2.25304,2.25304 3.41309,5.54082 3.41309,9.67334 0,1.04763 0.0211,1.26567 0.12243,1.26567 0.0673,0 1.82947,-0.58647 3.91584,-1.30327 2.08636,-0.71679 4.46014,-1.51624 5.27506,-1.77656 3.4262,-1.09444 7.68595,-2.06558 10.87967,-2.48034 1.67319,-0.2173 5.43706,-0.21899 6.79905,-0.003 2.71047,0.42973 4.66597,1.25705 5.94512,2.51522 0.73898,0.72685 1.20793,1.56035 1.36952,2.43417 0.19773,1.06923 -0.24401,2.29207 -1.15975,3.21041 -0.45151,0.45279 -0.60216,0.54697 -1.13284,0.70816 -0.8555,0.25985 -2.07523,0.21786 -2.63296,-0.0906 -0.49834,-0.27564 -0.61035,-0.56888 -0.38017,-0.99517 0.20583,-0.38118 0.61128,-0.66218 1.06637,-0.73907 0.30855,-0.0521 0.36459,-0.1003 0.52536,-0.45161 0.26691,-0.58325 0.24574,-1.42548 -0.0521,-2.07294 -0.30571,-0.66452 -1.18752,-1.53269 -1.96557,-1.93517 -2.21135,-1.14392 -5.44108,-1.22087 -10.20234,-0.2431 -4.11984,0.84605 -5.93352,1.38334 -13.67366,4.05063 -1.21074,0.41722 -2.85468,0.94271 -3.6532,1.16774 l -1.45187,0.40916 -0.18412,0.68155 c -0.24094,0.89181 -0.85917,2.45568 -1.30703,3.30621 -1.12028,2.12753 -2.63091,3.68753 -4.18057,4.31721 -0.90765,0.36882 -1.77306,0.49124 -3.14187,0.44446 -0.94735,-0.0324 -1.42586,-0.092 -2.04529,-0.25497 -1.5245,-0.40103 -2.80462,-1.06779 -3.75881,-1.95783 -0.27688,-0.25826 -0.51427,-0.45873 -0.52753,-0.44547 -0.0133,0.0133 -0.2697,0.85987 -0.5699,1.88135 -1.15145,3.91823 -3.06308,9.89333 -4.19561,13.11407 -1.71709,4.88309 -3.23875,7.77841 -5.03478,9.57982 -0.72136,0.72352 -0.96364,0.9085 -1.57242,1.20055 -0.93345,0.44782 -1.52841,0.55706 -2.77034,0.50866 -1.11866,-0.0436 -1.86935,-0.25439 -2.70413,-0.75936 -2.57571,-1.55803 -4.54267,-5.64642 -5.77689,-12.00749 -0.7885,-4.06386 -1.11743,-7.40011 -1.26291,-12.80963 l -0.0587,-2.18395 -0.87326,3.43366 c -3.47469,13.66249 -4.59967,17.31266 -6.57671,21.33892 -1.55288,3.16249 -2.79642,4.55741 -4.45679,4.99933 -0.59119,0.15735 -2.2498,0.15163 -2.86758,-0.01 z m 46.39429,-27.56494 c 0.66259,-0.3311 1.59508,-1.24603 2.19957,-2.15814 0.6966,-1.0511 1.86748,-3.58775 1.86748,-4.04578 0,-0.0837 -0.34658,-0.12138 -1.4605,-0.15896 -2.28475,-0.0771 -4.18735,-0.51077 -6.19783,-1.41281 -0.31369,-0.14074 -0.61019,-0.23128 -0.65887,-0.20119 -0.12846,0.0794 -0.0245,2.36605 0.14768,3.24739 0.28629,1.4657 0.86398,2.95378 1.46801,3.78145 0.2962,0.40589 0.88355,0.83443 1.44435,1.05384 0.5239,0.20498 0.57778,0.20019 1.19011,-0.1058 z m 4.51355,-8.36296 c 0.20314,-0.19228 0.28476,-2.34237 0.14181,-3.73539 -0.37235,-3.62846 -1.73285,-6.37831 -3.97984,-8.04407 -1.3754,-1.01963 -2.34353,-1.21476 -3.37893,-0.68103 -1.64937,0.85021 -2.80025,3.11664 -2.7954,5.50502 0.004,2.15303 0.93379,3.85819 2.75019,5.04558 1.56334,1.02197 3.45539,1.76511 5.05531,1.98559 0.57216,0.0788 2.09892,0.0265 2.20686,-0.0757 z M 91.847342,256.582 c 1.80879,-0.97494 3.47178,-2.61347 4.20475,-4.14292 0.96568,-2.01504 0.62716,-4.32766 -0.82595,-5.64265 -0.27883,-0.25232 -0.57971,-0.45876 -0.66863,-0.45876 -0.24099,0 -1.07375,0.88352 -1.53757,1.63128 -0.57852,0.93269 -1.11323,2.32814 -1.53189,3.99788 -0.36123,1.44061 -0.7516,3.55493 -0.85725,4.64296 l -0.0561,0.57779 0.32984,-0.13759 c 0.18141,-0.0757 0.60567,-0.28628 0.9428,-0.46799 z m 46.965078,-9.15502 c 2.05957,-2.12127 3.99433,-4.51296 5.40163,-6.67731 3.68599,-5.66889 6.89199,-14.51966 7.85882,-21.69575 0.25128,-1.86512 0.31214,-4.64319 0.12893,-5.88567 -0.27081,-1.83653 -0.82001,-3.25607 -1.59703,-4.12786 -0.50679,-0.5686 -0.67581,-0.58628 -1.40092,-0.14656 -1.22511,0.74294 -2.66012,2.22349 -3.75435,3.8735 -1.70328,2.56841 -3.34734,7.27007 -4.92938,14.097 -1.42079,6.13112 -2.23682,11.46297 -2.92849,19.13467 -0.0945,1.04775 -0.19351,2.10502 -0.2201,2.3495 -0.0285,0.26175 -0.0149,0.4445 0.0331,0.4445 0.0448,0 0.6783,-0.61471 1.40776,-1.36602 z m -24.60072,-1.1501 c 0.44771,-0.3594 1.34343,-1.16902 1.99049,-1.79916 4.25362,-4.14237 7.14949,-8.59322 9.62605,-14.79491 1.70441,-4.26808 3.15185,-9.97434 3.54675,-13.98228 0.42698,-4.33367 -0.54928,-8.50676 -2.43075,-10.39043 -0.48132,-0.48189 -1.08756,-0.88243 -1.33559,-0.88243 -0.23534,0 -1.05809,0.49988 -1.6376,0.99497 -1.78369,1.52386 -4.19031,5.98454 -6.06385,11.23936 -2.24055,6.2842 -3.64364,15.01686 -4.48915,27.94 -0.14459,2.20993 -0.14836,2.32833 -0.0742,2.32833 0.0296,0 0.42014,-0.29405 0.86784,-0.65345 z m -57.944658,-8.36436 c 5.07549,-2.24343 8.70703,-4.68971 12.02668,-8.10142 2.31336,-2.37749 3.95525,-4.68904 5.4463,-7.66759 2.21124,-4.4172 3.65377,-9.67527 3.65066,-13.30671 -0.002,-2.0629 -0.47489,-4.26517 -1.26674,-5.89642 -1.21049,-2.49367 -3.5888,-4.5263 -5.71739,-4.8864 -1.00432,-0.1699 -2.60333,0.42974 -4.06417,1.52409 -3.36791,2.52297 -6.69383,7.66205 -8.50846,13.14693 -1.87059,5.65403 -2.84749,13.00069 -3.02043,22.71493 l -0.0554,3.1146 0.20416,-0.0777 c 0.11229,-0.0428 0.69947,-0.29669 1.30483,-0.56426 z"
       id="path72" />
  </g>
</svg>
